<?xml version="1.0" standalone="no"?>
<!DOCTYPE svg PUBLIC "-//W3C//DTD SVG 1.1//EN" "http://www.w3.org/Graphics/SVG/1.1/DTD/svg11.dtd" >
<svg xmlns="http://www.w3.org/2000/svg" xmlns:xlink="http://www.w3.org/1999/xlink" version="1.1">
<metadata>
Created by FontForge 20170731 at Fri Jul 13 04:10:05 2018
 By Aleksey,,,
Copyright Fortress Tech 2018
</metadata>
<defs>
<font id="8-bit-fortress" horiz-adv-x="3510" >
  <font-face 
    font-family="8-bit fortress"
    font-weight="400"
    font-stretch="normal"
    units-per-em="4096"
    panose-1="0 0 4 0 0 0 0 0 0 0"
    ascent="3276"
    descent="-820"
    x-height="2925"
    cap-height="3510"
    bbox="0 -585 4973 4096"
    underline-thickness="204"
    underline-position="103"
    unicode-range="U+0020-2122"
  />
<missing-glyph horiz-adv-x="1463" 
d="M1755 498v558h-559v-558h559zM2313 1151v558h-1117v-558h1117zM1755 1800v558h-559v-558h559zM2313 2453v555h-558q-232 0 -394 -162q-165 -165 -165 -393h1117zM0 0v3510h3510v-3510h-3510z" />
    <glyph glyph-name=".notdef" horiz-adv-x="1463" 
d="M1755 498v558h-559v-558h559zM2313 1151v558h-1117v-558h1117zM1755 1800v558h-559v-558h559zM2313 2453v555h-558q-232 0 -394 -162q-165 -165 -165 -393h1117zM0 0v3510h3510v-3510h-3510z" />
    <glyph glyph-name="glyph1" horiz-adv-x="0" 
 />
    <glyph glyph-name="glyph2" horiz-adv-x="1170" 
 />
    <glyph glyph-name="space" unicode=" " horiz-adv-x="1170" 
 />
    <glyph glyph-name="exclam" unicode="!" horiz-adv-x="1170" 
d="M0 0v585h585v-585h-585zM0 1170v2340h585v-2340h-585z" />
    <glyph glyph-name="quotedbl" unicode="&#x22;" horiz-adv-x="2340" 
d="M0 1755v1755h585v-1755h-585zM1170 1755v1755h585v-1755h-585z" />
    <glyph glyph-name="dollar" unicode="$" 
d="M2340 585v1170h585v-1170h-585zM0 2340v585h585v-585h-585zM1170 -585v585h-1170v585h1170v1170h-585v585h585v585h-585v585h585v586h585v-586h1170v-585h-1170v-585h585v-585h-585v-1170h585v-585h-585v-585h-585z" />
    <glyph glyph-name="percent" unicode="%" horiz-adv-x="4095" 
d="M0 0v585h585v-585h-585zM585 585v585h585v-585h-585zM2340 0v1170h1170v-1170h-1170zM1170 1170v585h585v-585h-585zM1755 1755v585h585v-585h-585zM2340 2340v585h585v-585h-585zM0 2340v1170h1170v-1170h-1170zM2925 2925v585h585v-585h-585z" />
    <glyph glyph-name="ampersand" unicode="&#x26;" horiz-adv-x="5851" 
d="M292 1170v1170h293v-292h585v292h292v-1170h-292v585h-585v-585h-293zM4681 1462v878h292v-878h-292zM585 2340v293h585v-293h-585zM2048 1170v1463h292v-293h293v-292h-293v-878h-292zM2925 1170v585h-292v293h292v585h293v-1463h-293zM3803 1170v1463h878v-293h-585
v-878h585v-292h-878z" />
    <glyph glyph-name="quotesingle" unicode="'" horiz-adv-x="1170" 
d="M0 1755v1755h585v-1755h-585z" />
    <glyph glyph-name="asterisk" unicode="*" horiz-adv-x="2925" 
d="M585 1755v585h585v-585h-585zM1755 1755v585h585v-585h-585zM1170 2340v585h585v-585h-585zM585 2925v585h585v-585h-585zM1755 2925v585h585v-585h-585z" />
    <glyph glyph-name="comma" unicode="," horiz-adv-x="2340" 
d="M585 0v585h585v-585h-585zM1170 585v585h585v-585h-585z" />
    <glyph glyph-name="period" unicode="." horiz-adv-x="1170" 
d="M0 0v585h585v-585h-585z" />
    <glyph glyph-name="zero" unicode="0" 
d="M585 0v585h1755v-585h-1755zM0 585v2340h585v-2340h-585zM2340 585v2340h585v-2340h-585zM585 2925v585h1755v-585h-1755z" />
    <glyph glyph-name="one" unicode="1" horiz-adv-x="1170" 
d="M0 0v3510h585v-3510h-585z" />
    <glyph glyph-name="two" unicode="2" 
d="M0 0v585h585v585h585v-585h1755v-585h-2925zM1170 1170v585h1170v-585h-1170zM0 2340v585h585v-585h-585zM2340 1755v1170h585v-1170h-585zM585 2925v585h1755v-585h-1755z" />
    <glyph glyph-name="three" unicode="3" 
d="M585 0v585h1755v-585h-1755zM0 585v585h585v-585h-585zM2340 585v1170h585v-1170h-585zM1170 1755v585h1170v-585h-1170zM0 2340v585h585v-585h-585zM2340 2340v585h585v-585h-585zM585 2925v585h1755v-585h-1755z" />
    <glyph glyph-name="four" unicode="4" 
d="M2340 0v1170h-2340v2340h585v-1755h1755v1755h585v-3510h-585z" />
    <glyph glyph-name="five" unicode="5" 
d="M585 0v585h1755v-585h-1755zM0 585v585h585v-585h-585zM2340 585v1170h585v-1170h-585zM0 1755v1755h2925v-585h-2340v-585h1755v-585h-2340z" />
    <glyph glyph-name="six" unicode="6" 
d="M585 0v585h1755v-585h-1755zM2340 585v1170h585v-1170h-585zM0 585v2340h585v-585h1755v-585h-1755v-1170h-585zM585 2925v585h2340v-585h-2340z" />
    <glyph glyph-name="seven" unicode="7" 
d="M2340 0v2925h-2340v585h2925v-3510h-585z" />
    <glyph glyph-name="eight" unicode="8" 
d="M585 0v585h1755v-585h-1755zM0 585v1170h585v-1170h-585zM2340 585v1170h585v-1170h-585zM585 1755v585h1755v-585h-1755zM0 2340v585h585v-585h-585zM2340 2340v585h585v-585h-585zM585 2925v585h1755v-585h-1755z" />
    <glyph glyph-name="nine" unicode="9" 
d="M585 0v585h1755v-585h-1755zM0 1755v1170h585v-1170h-585zM2340 585v585h-1755v585h1755v1170h585v-2340h-585zM585 2925v585h1755v-585h-1755z" />
    <glyph glyph-name="question" unicode="?" horiz-adv-x="2925" 
d="M585 0v585h585v-585h-585zM585 1170v585h1170v-585h-1170zM1755 1755v1170h585v-1170h-585zM0 2925v585h1755v-585h-1755z" />
    <glyph glyph-name="at" unicode="@" horiz-adv-x="4095" 
d="M585 0v1170h1170v585h585v-1170h585v-585h-2340zM0 1755v585h1755v-585h-1755zM2925 585v2340h585v-2340h-585zM0 2925v585h2925v-585h-2925z" />
    <glyph glyph-name="A" unicode="A" 
d="M0 0v2925h585v-1170h1755v1170h585v-2925h-585v1170h-1755v-1170h-585zM585 2925v585h1755v-585h-1755z" />
    <glyph glyph-name="B" unicode="B" 
d="M2340 585v1170h585v-1170h-585zM2340 2340v585h585v-585h-585zM0 0v3510h2340v-585h-1755v-585h1755v-585h-1755v-1170h1755v-585h-2340z" />
    <glyph glyph-name="C" unicode="C" 
d="M585 0v585h2340v-585h-2340zM0 585v2340h585v-2340h-585zM585 2925v585h2340v-585h-2340z" />
    <glyph glyph-name="D" unicode="D" 
d="M2340 585v2340h585v-2340h-585zM0 0v3510h2340v-585h-1755v-2340h1755v-585h-2340z" />
    <glyph glyph-name="E" unicode="E" 
d="M0 0v3510h2925v-585h-2340v-585h1755v-585h-1755v-1170h2340v-585h-2925z" />
    <glyph glyph-name="F" unicode="F" 
d="M0 0v3510h2925v-585h-2340v-1170h1755v-585h-1755v-1170h-585z" />
    <glyph glyph-name="G" unicode="G" 
d="M585 0v585h1755v-585h-1755zM2340 585v1170h-1170v585h1755v-1755h-585zM0 585v2340h585v-2340h-585zM585 2925v585h2340v-585h-2340z" />
    <glyph glyph-name="H" unicode="H" 
d="M0 0v3510h585v-1170h1755v1170h585v-3510h-585v1755h-1755v-1755h-585z" />
    <glyph glyph-name="I" unicode="I" horiz-adv-x="2340" 
d="M0 0v585h585v2340h-585v585h1755v-585h-585v-2340h585v-585h-1755z" />
    <glyph glyph-name="J" unicode="J" 
d="M585 0v585h1755v-585h-1755zM0 585v585h585v-585h-585zM2340 585v2925h585v-2925h-585z" />
    <glyph glyph-name="K" unicode="K" 
d="M2340 0v1170h585v-1170h-585zM1755 1170v585h585v-585h-585zM1755 2340v585h585v-585h-585zM0 0v3510h585v-1170h1170v-585h-1170v-1755h-585zM2340 2925v585h585v-585h-585z" />
    <glyph glyph-name="L" unicode="L" 
d="M0 0v3510h585v-2925h2340v-585h-2925z" />
    <glyph glyph-name="M" unicode="M" 
d="M1170 0v2925h585v-2925h-585zM2340 0v2925h585v-2925h-585zM0 0v3510h1170v-585h-585v-2925h-585zM1755 2925v585h585v-585h-585z" />
    <glyph glyph-name="N" unicode="N" 
d="M1170 1755v585h585v-585h-585zM0 0v3510h585v-585h585v-585h-585v-2340h-585zM2340 0v1170h-585v585h585v1755h585v-3510h-585z" />
    <glyph glyph-name="O" unicode="O" 
d="M585 0v585h1755v-585h-1755zM0 585v2340h585v-2340h-585zM2340 585v2340h585v-2340h-585zM585 2925v585h1755v-585h-1755z" />
    <glyph glyph-name="P" unicode="P" 
d="M2340 1755v1170h585v-1170h-585zM0 0v3510h2340v-585h-1755v-1170h1755v-585h-1755v-1170h-585z" />
    <glyph glyph-name="Q" unicode="Q" 
d="M2340 0v585h585v-585h-585zM585 585v585h585v585h585v-585h585v-585h-1755zM0 1170v1755h585v-1755h-585zM2340 1170v1755h585v-1755h-585zM585 2925v585h1755v-585h-1755z" />
    <glyph glyph-name="R" unicode="R" 
d="M2340 0v1755h585v-1755h-585zM2340 2340v585h585v-585h-585zM0 0v3510h2340v-585h-1755v-585h1755v-585h-1755v-1755h-585z" />
    <glyph glyph-name="S" unicode="S" 
d="M0 0v585h2340v-585h-2340zM2340 585v1170h585v-1170h-585zM585 1755v585h1755v-585h-1755zM0 2340v585h585v-585h-585zM585 2925v585h2340v-585h-2340z" />
    <glyph glyph-name="T" unicode="T" 
d="M1170 0v2925h-1170v585h2925v-585h-1170v-2925h-585z" />
    <glyph glyph-name="U" unicode="U" 
d="M585 0v585h1755v-585h-1755zM0 585v2925h585v-2925h-585zM2340 585v2925h585v-2925h-585z" />
    <glyph glyph-name="V" unicode="V" 
d="M1170 0v585h585v-585h-585zM585 585v585h585v-585h-585zM1755 585v585h585v-585h-585zM0 1170v2340h585v-2340h-585zM2340 1170v2340h585v-2340h-585z" />
    <glyph glyph-name="W" unicode="W" 
d="M1755 0v585h585v-585h-585zM1170 585v1755h585v-1755h-585zM0 0v3510h585v-2925h585v-585h-1170zM2340 585v2925h585v-2925h-585z" />
    <glyph glyph-name="X" unicode="X" 
d="M0 0v1170h585v-1170h-585zM2340 0v1170h585v-1170h-585zM585 1170v585h585v-585h-585zM1755 1170v585h585v-585h-585zM1170 1755v585h585v-585h-585zM585 2340v585h585v-585h-585zM1755 2340v585h585v-585h-585zM0 2925v585h585v-585h-585zM2340 2925v585h585v-585h-585z
" />
    <glyph glyph-name="Y" unicode="Y" 
d="M1170 0v2340h585v-2340h-585zM585 2340v585h585v-585h-585zM1755 2340v585h585v-585h-585zM0 2925v585h585v-585h-585zM2340 2925v585h585v-585h-585z" />
    <glyph glyph-name="Z" unicode="Z" 
d="M0 0v1170h585v-585h2340v-585h-2925zM585 1170v585h1170v-585h-1170zM1755 1755v585h585v-585h-585zM2340 2340v585h-2340v585h2925v-1170h-585z" />
    <glyph glyph-name="underscore" unicode="_" 
d="M0 0v585h2925v-585h-2925z" />
    <glyph glyph-name="a" unicode="a" 
d="M0 585v585h585v-585h-585zM585 0v585h1755v585h-1755v585h1755v585h585v-2340h-2340zM0 2340v585h2340v-585h-2340z" />
    <glyph glyph-name="b" unicode="b" 
d="M2340 585v1170h585v-1170h-585zM0 0v3510h585v-1170h1755v-585h-1755v-1170h1755v-585h-2340z" />
    <glyph glyph-name="c" unicode="c" 
d="M585 0v585h2340v-585h-2340zM0 585v1755h585v-1755h-585zM585 2340v585h2340v-585h-2340z" />
    <glyph glyph-name="d" unicode="d" 
d="M0 585v1170h585v-1170h-585zM585 0v585h1755v1170h-1755v585h1755v1170h585v-3510h-2340z" />
    <glyph glyph-name="e" unicode="e" 
d="M585 0v585h1755v-585h-1755zM0 585v1755h585v-585h1755v585h585v-1170h-2340v-585h-585zM585 2340v585h1755v-585h-1755z" />
    <glyph glyph-name="f" unicode="f" 
d="M585 0v1170h-585v585h585v1170h585v-1170h1170v-585h-1170v-1170h-585zM1170 2925v585h1755v-585h-1755z" />
    <glyph glyph-name="g" unicode="g" 
d="M585 -585v585h1755v-585h-1755zM0 1170v1170h585v-1170h-585zM2340 0v585h-1755v585h1755v1170h-1755v585h2340v-2925h-585z" />
    <glyph glyph-name="h" unicode="h" 
d="M2340 0v1755h585v-1755h-585zM0 0v3510h585v-1170h1755v-585h-1755v-1755h-585z" />
    <glyph glyph-name="i" unicode="i" horiz-adv-x="1755" 
d="M585 0v2340h585v-2340h-585zM585 2925v585h585v-585h-585z" />
    <glyph glyph-name="j" unicode="j" horiz-adv-x="1755" 
d="M0 -585v585h585v-585h-585zM585 0v2340h585v-2340h-585zM585 2925v585h585v-585h-585z" />
    <glyph glyph-name="k" unicode="k" horiz-adv-x="2925" 
d="M1755 0v585h585v-585h-585zM1170 585v585h585v-585h-585zM1170 1755v585h585v-585h-585zM1755 2340v585h585v-585h-585zM0 0v3510h585v-1755h585v-585h-585v-1170h-585z" />
    <glyph glyph-name="l" unicode="l" horiz-adv-x="1170" 
d="M0 0v3510h585v-3510h-585z" />
    <glyph glyph-name="m" unicode="m" 
d="M1170 0v2340h585v-2340h-585zM2340 0v2340h585v-2340h-585zM0 0v2925h1170v-585h-585v-2340h-585zM1755 2340v585h585v-585h-585z" />
    <glyph glyph-name="n" unicode="n" 
d="M2340 0v2340h585v-2340h-585zM0 0v2925h2340v-585h-1755v-2340h-585z" />
    <glyph glyph-name="o" unicode="o" 
d="M585 0v585h1755v-585h-1755zM0 585v1755h585v-1755h-585zM2340 585v1755h585v-1755h-585zM585 2340v585h1755v-585h-1755z" />
    <glyph glyph-name="p" unicode="p" 
d="M2340 1170v1170h585v-1170h-585zM0 -585v3510h2340v-585h-1755v-1170h1755v-585h-1755v-1170h-585z" />
    <glyph glyph-name="q" unicode="q" 
d="M0 1170v1170h585v-1170h-585zM2340 -585v1170h-1755v585h1755v1170h-1755v585h2340v-3510h-585z" />
    <glyph glyph-name="r" unicode="r" 
d="M0 0v2925h585v-585h585v-585h-585v-1755h-585zM1170 2340v585h1755v-585h-1755z" />
    <glyph glyph-name="s" unicode="s" 
d="M0 0v585h2340v-585h-2340zM2340 585v585h585v-585h-585zM585 1170v585h1755v-585h-1755zM0 1755v585h585v-585h-585zM585 2340v585h1755v-585h-1755z" />
    <glyph glyph-name="t" unicode="t" horiz-adv-x="2340" 
d="M585 0v585h1170v-585h-1170zM0 585v2925h585v-585h1170v-585h-1170v-1755h-585z" />
    <glyph glyph-name="u" unicode="u" 
d="M585 0v585h1755v-585h-1755zM0 585v2340h585v-2340h-585zM2340 585v2340h585v-2340h-585z" />
    <glyph glyph-name="v" unicode="v" 
d="M1170 0v585h585v-585h-585zM585 585v585h585v-585h-585zM1755 585v585h585v-585h-585zM0 1170v1755h585v-1755h-585zM2340 1170v1755h585v-1755h-585z" />
    <glyph glyph-name="w" unicode="w" 
d="M1755 0v585h585v-585h-585zM0 0v2925h585v-2340h585v-585h-1170zM1170 585v2340h585v-2340h-585zM2340 585v2340h585v-2340h-585z" />
    <glyph glyph-name="x" unicode="x" 
d="M0 0v585h585v-585h-585zM2340 0v585h585v-585h-585zM585 585v585h585v-585h-585zM1755 585v585h585v-585h-585zM1170 1170v585h585v-585h-585zM585 1755v585h585v-585h-585zM1755 1755v585h585v-585h-585zM0 2340v585h585v-585h-585zM2340 2340v585h585v-585h-585z" />
    <glyph glyph-name="y" unicode="y" 
d="M585 -585v585h1755v-585h-1755zM0 1170v1755h585v-1755h-585zM2340 0v585h-1755v585h1755v1755h585v-2925h-585z" />
    <glyph glyph-name="z" unicode="z" 
d="M0 0v585h585v585h585v-585h1755v-585h-2925zM1170 1170v585h585v-585h-585zM1755 1755v585h-1755v585h2925v-585h-585v-585h-585z" />
    <glyph glyph-name="copyright" unicode="&#xa9;" horiz-adv-x="2925" 
d="M1170 585v585h1170v-585h-1170zM585 1170v585h585v-585h-585zM1170 1755v585h1170v-585h-1170z" />
    <glyph glyph-name="registered" unicode="&#xae;" horiz-adv-x="2925" 
d="M1755 585v585h585v-585h-585zM585 585v1755h1755v-585h-585v-585h-585v-585h-585z" />
    <glyph glyph-name="trademark" unicode="&#x2122;" horiz-adv-x="4681" 
d="M1170 1170v1170h-585v293h1463v-293h-586v-1170h-292zM2633 1170v1463h292v-293h585v293h293v-1463h-293v878h-585v-878h-292z" />
  </font>
</defs>
</svg>
