{
    "asset" : {
        "generator" : "Khronos glTF Blender I/O v0.9.36",
        "version" : "2.0"
    },
    "scene" : 0,
    "scenes" : [
        {
            "name" : "Scene",
            "nodes" : [
                0
            ]
        }
    ],
    "nodes" : [
        {
            "mesh" : 0,
            "name" : "Arcade machine",
            "scale" : [
                -0.040000006556510925,
                0.08000002056360245,
                0.040000010281801224
            ]
        }
    ],
    "meshes" : [
        {
            "name" : "Cube.006",
            "primitives" : [
                {
                    "attributes" : {
                        "POSITION" : 0,
                        "NORMAL" : 1,
                        "TEXCOORD_0" : 2
                    },
                    "indices" : 3
                }
            ]
        }
    ],
    "accessors" : [
        {
            "bufferView" : 0,
            "componentType" : 5126,
            "count" : 854,
            "max" : [
                1,
                2,
                1.0974173545837402
            ],
            "min" : [
                -1,
                0,
                -1
            ],
            "type" : "VEC3"
        },
        {
            "bufferView" : 1,
            "componentType" : 5126,
            "count" : 854,
            "type" : "VEC3"
        },
        {
            "bufferView" : 2,
            "componentType" : 5126,
            "count" : 854,
            "type" : "VEC2"
        },
        {
            "bufferView" : 3,
            "componentType" : 5123,
            "count" : 1356,
            "type" : "SCALAR"
        }
    ],
    "bufferViews" : [
        {
            "buffer" : 0,
            "byteLength" : 10248,
            "byteOffset" : 0
        },
        {
            "buffer" : 0,
            "byteLength" : 10248,
            "byteOffset" : 10248
        },
        {
            "buffer" : 0,
            "byteLength" : 6832,
            "byteOffset" : 20496
        },
        {
            "buffer" : 0,
            "byteLength" : 2712,
            "byteOffset" : 27328
        }
    ],
    "buffers" : [
        {
            "byteLength" : 30040,
            "uri" : "data:application/octet-stream;base64,"
        }
    ]
}
